#!OML:ASF H:\Punching\Project 1\Capture day 1\Session 1\female.ASF
:FULLY-SPECIFIED
:DEGREES
710
root 1.07173 14.3688 2.61027 16.2421 31.5827 0.165026
lowerback 5.5159 6.15317 7.17359
upperback -3.00803 9.01757 3.05676
thorax -5.64001 4.25234 -1.65158
lowerneck -10.5266 -10.0129 -1.50031
upperneck 18.8853 -14.6359 6.2164
head 8.17266 -6.38938 0.769959
rclavicle -7.39479e-014 -3.97569e-014
rhumerus 33.2095 0.580452 -63.1234
rradius 40.7768
rwrist -6.58658
rhand -14.0973 -27.0506
rfingers 7.12502
rthumb 12.0353 -56.6846
lclavicle -7.39479e-014 -3.97569e-014
lhumerus 24.4937 -47.0413 75.6411
lradius 134.749
lwrist 10.5979
lhand -22.4538 8.50308
lfingers 7.12502
lthumb 3.97052 38.4458
rfemur 10.9503 -10.8484 19.7065
rtibia 12.2331
rfoot -28.6794 -37.3323
rtoes -10.9873
lfemur -59.6639 -12.6692 -15.2557
ltibia 46.4248
lfoot -2.42554 -7.12153
ltoes 0.729103
711
root 1.06683 14.3709 2.59551 16.0349 31.4145 0.102488
lowerback 5.9296 6.47062 7.37123
upperback -2.948 9.48618 2.95637
thorax -5.73078 4.46796 -1.9411
lowerneck -10.4753 -10.2015 -1.34632
upperneck 18.6044 -14.9322 6.39574
head 8.08605 -6.51353 0.779274
rclavicle -1.34378e-013 7.95139e-015
rhumerus 35.3671 -2.72457 -65.4036
rradius 34.4899
rwrist -1.18152
rhand -15.4124 -26.1143
rfingers 7.12502
rthumb 10.7669 -55.8184
lclavicle -1.34378e-013 7.95139e-015
lhumerus 24.6617 -47.3099 75.4039
lradius 134.694
lwrist 10.4406
lhand -22.1841 8.14998
lfingers 7.12502
lthumb 4.23104 38.0877
rfemur 11.0933 -10.8886 19.6155
rtibia 12.1602
rfoot -28.5316 -37.1491
rtoes -11.1486
lfemur -59.4431 -12.5342 -15.281
ltibia 46.3547
lfoot -2.41741 -7.04732
ltoes 0.678014
712
root 1.06312 14.3771 2.58368 15.9385 31.1567 0.130374
lowerback 6.28297 6.73918 7.42921
upperback -2.89216 9.86973 2.81507
thorax -5.80788 4.64671 -2.18762
lowerneck -10.4799 -10.32 -1.16426
upperneck 18.2973 -15.1551 6.6772
head 8.00477 -6.59206 0.8225
rclavicle -7.79236e-014 6.36111e-015
rhumerus 37.1306 -6.42214 -68.4103
rradius 29.9235
rwrist 4.41984
rhand -16.5684 -24.6548
rfingers 7.12502
rthumb 9.65174 -54.4136
lclavicle -7.79236e-014 6.36111e-015
lhumerus 24.8869 -47.5162 75.0947
lradius 134.69
lwrist 10.3336
lhand -21.9266 7.88267
lfingers 7.12502
lthumb 4.4796 37.8153
rfemur 11.0832 -10.9084 19.4188
rtibia 12.2459
rfoot -28.441 -36.9086
rtoes -11.3237
lfemur -59.2208 -12.4128 -15.3408
ltibia 46.2045
lfoot -2.40314 -6.88961
ltoes 0.581177
713
root 1.06022 14.3873 2.57454 15.9624 30.8414 0.22559
lowerback 6.54 6.95239 7.36376
upperback -2.84552 10.1572 2.64168
thorax -5.85903 4.78373 -2.38436
lowerneck -10.5474 -10.3767 -0.94722
upperneck 17.9993 -15.3138 7.029
head 7.93917 -6.62993 0.886028
rclavicle -1.32391e-013 -2.70347e-014
rhumerus 38.4029 -9.8915 -71.4994
rradius 27.2999
rwrist 9.40626
rhand -17.1804 -23.0241
rfingers 7.12502
rthumb 9.06126 -52.8094
lclavicle -1.32391e-013 -2.70347e-014
lhumerus 25.1958 -47.6432 74.7258
lradius 134.693
lwrist 10.2479
lhand -21.6964 7.69078
lfingers 7.12502
lthumb 4.7019 37.6186
rfemur 10.8809 -10.9192 19.1587
rtibia 12.5133
rfoot -28.4362 -36.6343
rtoes -11.455
lfemur -59.0327 -12.314 -15.4078
ltibia 45.9755
lfoot -2.37061 -6.66552
ltoes 0.439136
714
root 1.05799 14.4007 2.5677 16.0911 30.5003 0.350333
lowerback 6.70588 7.09455 7.198
upperback -2.83894 10.3339 2.4533
thorax -5.92308 4.86927 -2.52704
lowerneck -10.6262 -10.3565 -0.695903
upperneck 17.7548 -15.3827 7.41275
head 7.89025 -6.6179 0.962691
rclavicle 3.57812e-014 1.11319e-014
rhumerus 38.8771 -12.2073 -73.7031
rradius 26.6541
rwrist 12.542
rhand -17.053 -21.5616
rfingers 7.12502
rthumb 9.18419 -51.3416
lclavicle 3.57812e-014 1.11319e-014
lhumerus 25.4492 -47.7177 74.3928
lradius 134.704
lwrist 10.1127
lhand -21.495 7.6988
lfingers 7.12502
lthumb 4.89639 37.6222
rfemur 10.4939 -10.9309 18.8864
rtibia 12.9348
rfoot -28.5085 -36.3523
rtoes -11.517
lfemur -58.9029 -12.2454 -15.4458
ltibia 45.6836
lfoot -2.31484 -6.38979
ltoes 0.258851
715
root 1.05656 14.4169 2.56279 16.2973 30.1426 0.463749
lowerback 6.77732 7.15597 6.95476
upperback -2.87865 10.3909 2.2718
thorax -6.00714 4.89825 -2.60382
lowerneck -10.7046 -10.2492 -0.39581
upperneck 17.6112 -15.3439 7.77079
head 7.86444 -6.54958 1.03413
rclavicle -7.196e-014 -3.49861e-014
rhumerus 38.3833 -12.8455 -74.4838
rradius 27.7947
rwrist 12.9809
rhand -16.2945 -20.8053
rfingers 7.12502
rthumb 9.916 -50.5518
lclavicle -7.196e-014 -3.49861e-014
lhumerus 25.5875 -47.7347 74.1549
lradius 134.713
lwrist 9.90301
lhand -21.329 7.88522
lfingers 7.12502
lthumb 5.05673 37.8049
rfemur 9.95819 -10.9346 18.6465
rtibia 13.4466
rfoot -28.631 -36.0818
rtoes -11.479
lfemur -58.8423 -12.2006 -15.4202
ltibia 45.3534
lfoot -2.24118 -6.06942
ltoes 0.0548998
716
root 1.05611 14.4351 2.55898 16.5414 29.7631 0.520129
lowerback 6.75957 7.13303 6.67044
upperback -2.95414 10.3283 2.11938
thorax -6.10118 4.87047 -2.61005
lowerneck -10.8115 -10.0499 -0.047585
upperneck 17.6247 -15.1893 8.05386
head 7.88072 -6.42134 1.0834
rclavicle 2.62396e-014 -4.77083e-015
rhumerus 37.1035 -11.9632 -74.131
rradius 30.3493
rwrist 10.9618
rhand -15.2073 -20.4338
rfingers 7.12502
rthumb 10.9648 -50.1275
lclavicle 2.62396e-014 -4.77083e-015
lhumerus 25.5948 -47.6749 74.0364
lradius 134.715
lwrist 9.63526
lhand -21.2063 8.20436
lfingers 7.12502
lthumb 5.17514 38.1212
rfemur 9.32997 -10.9175 18.4763
rtibia 13.9636
rfoot -28.7525 -35.8248
rtoes -11.3374
lfemur -58.8518 -12.1626 -15.2952
ltibia 45.0171
lfoot -2.15969 -5.70343
ltoes -0.162715
717
root 1.05732 14.4547 2.55599 16.7926 29.341 0.504457
lowerback 6.66296 7.03068 6.36223
upperback -3.04609 10.155 2.00984
thorax -6.18849 4.79106 -2.54057
lowerneck -10.9492 -9.75327 0.35606
upperneck 17.7945 -14.907 8.22047
head 7.93502 -6.23052 1.09791
rclavicle 8.74653e-015 -2.22639e-014
rhumerus 35.4105 -10.006 -73.2598
rradius 34.0035
rwrist 7.05036
rhand -14.3185 -20.4617
rfingers 7.12502
rthumb 11.8219 -50.108
lclavicle 8.74653e-015 -2.22639e-014
lhumerus 25.486 -47.5231 74.0355
lradius 134.722
lwrist 9.36027
lhand -21.149 8.57004
lfingers 7.12502
lthumb 5.23044 38.4855
rfemur 8.66923 -10.8776 18.3726
rtibia 14.4157
rfoot -28.8125 -35.5761
rtoes -11.1404
lfemur -58.9126 -12.1171 -15.0668
ltibia 44.7027
lfoot -2.09116 -5.28179
ltoes -0.392822
718
root 1.06075 14.4755 2.55339 17.016 28.8433 0.39522
lowerback 6.50227 6.85775 6.05381
upperback -3.13019 9.88578 1.95625
thorax -6.24718 4.66775 -2.39546
lowerneck -11.135 -9.35752 0.801838
upperneck 18.1154 -14.4908 8.25538
head 8.02952 -5.97621 1.07472
rclavicle -1.54257e-013 3.81667e-014
rhumerus 33.6277 -7.43228 -72.3986
rradius 38.5156
rwrist 1.89707
rhand -14.0716 -20.9222
rfingers 7.12502
rthumb 12.0601 -50.5546
lclavicle -1.54257e-013 3.81667e-014
lhumerus 25.2979 -47.2494 74.1333
lradius 134.737
lwrist 9.14901
lhand -21.1714 8.91688
lfingers 7.12502
lthumb 5.20887 38.8329
rfemur 8.0266 -10.7902 18.3338
rtibia 14.7495
rfoot -28.7853 -35.3163
rtoes -10.9095
lfemur -59.0007 -12.0371 -14.7275
ltibia 44.4356
lfoot -2.05517 -4.79302
ltoes -0.643613
719
root 1.06645 14.4973 2.55053 17.1961 28.2303 0.19906
lowerback 6.30013 6.63341 5.75022
upperback -3.18266 9.54707 1.95848
thorax -6.25996 4.51402 -2.18118
lowerneck -11.3827 -8.87116 1.26773
upperneck 18.5568 -13.9485 8.16668
head 8.16134 -5.66438 1.01865
rclavicle -1.63003e-014 -4.77083e-015
rhumerus 31.9207 -4.56987 -71.7755
rradius 43.6777
rwrist -3.95951
rhand -14.7147 -21.7863
rfingers 7.12502
rthumb 11.4399 -51.4542
lclavicle -1.63003e-014 -4.77083e-015
lhumerus 25.0828 -46.8487 74.2893
lradius 134.776
lwrist 9.07385
lhand -21.2863 9.24287
lfingers 7.12502
lthumb 5.09788 39.1616
rfemur 7.43032 -10.6359 18.333
rtibia 14.9402
rfoot -28.6475 -35.0293
rtoes -10.693
lfemur -59.0896 -11.8989 -14.2943
ltibia 44.2285
lfoot -2.06553 -4.22291
ltoes -0.906273
720
root 1.07489 14.5199 2.54751 17.3285 27.4727 -0.0678779
lowerback 6.06995 6.38456 5.45846
upperback -3.19029 9.17487 2.00281
thorax -6.21273 4.34713 -1.91994
lowerneck -11.6837 -8.31519 1.72693
upperneck 19.0725 -13.3058 7.9907
head 8.32177 -5.30901 0.943713
rclavicle 9.97899e-014 4.6118e-014
rhumerus 30.3448 -1.68139 -71.4324
rradius 49.2483
rwrist -9.98763
rhand -16.083 -22.7908
rfingers 7.12502
rthumb 10.12 -52.5274
lclavicle 9.97899e-014 4.6118e-014
lhumerus 24.898 -46.3521 74.4708
lradius 134.848
lwrist 9.19555
lhand -21.4817 9.57646
lfingers 7.12502
lthumb 4.90921 39.4996
rfemur 6.89808 -10.4131 18.3356
rtibia 14.9859
rfoot -28.3963 -34.6895
rtoes -10.5469
lfemur -59.1543 -11.69 -13.7917
ltibia 44.089
lfoot -2.1317 -3.55969
ltoes -1.16929
